<svg width="22" height="22" viewBox="0 0 22 22" fill="none" xmlns="http://www.w3.org/2000/svg">
<path d="M19.889 10.5244L11.8355 2.47084C11.4776 2.11291 10.9407 2.11291 10.5827 2.47084L2.52919 10.5244C2.17126 10.8823 2.17126 11.4192 2.52919 11.7771C2.88713 12.1351 3.42403 12.1351 3.78197 11.7771L4.05042 11.5087V18.3095C4.05042 19.2938 4.85577 20.0991 5.84009 20.0991H8.5246V14.7301C8.5246 13.2089 9.68789 12.0456 11.2091 12.0456C12.7303 12.0456 13.8936 13.2089 13.8936 14.7301V20.0991H16.5781C17.5625 20.0991 18.3678 19.2938 18.3678 18.3095V11.5087L18.6363 11.7771C18.8152 11.9561 19.0837 12.0456 19.2626 12.0456C19.4416 12.0456 19.7101 12.0456 19.889 11.7771C20.247 11.4192 20.247 10.8823 19.889 10.5244Z" fill="#FF2233"/>
</svg>
