<svg width="22" height="22" viewBox="0 0 22 22" fill="none" xmlns="http://www.w3.org/2000/svg">
<path d="M19.89 10.4325L11.8365 2.37892C11.4785 2.02099 10.9416 2.02099 10.5837 2.37892L2.53017 10.4325C2.17224 10.7904 2.17224 11.3273 2.53017 11.6852C2.8881 12.0432 3.42501 12.0432 3.78294 11.6852L4.05139 11.4168V18.2175C4.05139 19.2019 4.85675 20.0072 5.84107 20.0072H8.52558V14.6382C8.52558 13.117 9.68887 11.9537 11.2101 11.9537C12.7313 11.9537 13.8946 13.117 13.8946 14.6382V20.0072H16.5791C17.5634 20.0072 18.3688 19.2019 18.3688 18.2175V11.4168L18.6372 11.6852C18.8162 11.8642 19.0847 11.9537 19.2636 11.9537C19.4426 11.9537 19.711 11.9537 19.89 11.6852C20.2479 11.3273 20.2479 10.7904 19.89 10.4325Z" fill="currentColor"/>
</svg>
