<svg width="25" height="25" viewBox="0 0 25 25" fill="none" xmlns="http://www.w3.org/2000/svg">
<path d="M20.3027 2.10152C21.8477 1.98917 23.09 3.28622 22.8857 4.84956L22.8212 5.3105C22.4652 7.7039 21.5795 11.3774 19.3339 13.7988L18.9277 14.2177C18.2549 14.8796 17.4877 15.4942 16.7041 16.0527L16.9814 17.9912L16.999 18.1953C17.0107 18.671 16.8269 19.1348 16.4863 19.4755L13.3046 22.6582C12.3169 23.6458 10.6474 23.1305 10.3583 21.7998L10.3349 21.6689L9.9101 18.6982L9.91499 18.6972C9.64326 18.566 9.3903 18.3902 9.17085 18.1709L6.831 15.831C6.61152 15.6114 6.4358 15.3579 6.30464 15.0859L6.30366 15.0927L3.33393 14.6679C1.90656 14.4638 1.32509 12.7178 2.34467 11.6982L5.52632 8.51558C5.91571 8.12635 6.46564 7.94368 7.01069 8.02144L8.94819 8.29781C9.62274 7.3512 10.3824 6.42999 11.2041 5.66792L11.4492 5.4482C14.0345 3.22029 17.8669 2.41509 20.1523 2.11617L20.3027 2.10152ZM8.00093 20.1835C8.29383 19.8908 8.76862 19.8907 9.06147 20.1835C9.35423 20.4764 9.3542 20.9512 9.06147 21.2441L7.64741 22.6582C7.35453 22.9508 6.87969 22.9509 6.58686 22.6582C6.29405 22.3653 6.2942 21.8905 6.58686 21.5976L8.00093 20.1835ZM5.87983 18.0615C6.17267 17.7689 6.64755 17.7689 6.94038 18.0615C7.23314 18.3543 7.23301 18.8291 6.94038 19.122L4.11225 21.9511C3.81946 22.2438 3.3446 22.2437 3.05171 21.9511C2.75884 21.6583 2.75889 21.1835 3.05171 20.8906L5.87983 18.0615ZM3.75874 15.9404C4.05165 15.6477 4.52647 15.6476 4.81928 15.9404C5.11204 16.2332 5.11192 16.708 4.81928 17.0009L3.40522 18.415C3.11235 18.7079 2.63757 18.7078 2.34467 18.415C2.05178 18.1221 2.05178 17.6473 2.34467 17.3544L3.75874 15.9404ZM17.0166 7.98531C16.2356 7.20446 14.9695 7.20464 14.1884 7.98531C13.4074 8.76635 13.4074 10.0334 14.1884 10.8144C14.9695 11.595 16.2356 11.5952 17.0166 10.8144C17.7976 10.0334 17.7976 8.76635 17.0166 7.98531Z" fill="#FF2233"/>
</svg>
