<svg width="24" height="25" viewBox="0 0 24 25" fill="none" xmlns="http://www.w3.org/2000/svg">
<path d="M18.3033 13.2889L17.7534 12.7789L18.3033 13.2889ZM11.2322 6.21781L11.7422 6.76771L11.2322 6.21781ZM21.6606 4.7523L22.4043 4.84956L21.6606 4.7523ZM19.7688 2.86044L19.866 3.60411L19.7688 2.86044ZM6.4941 13.1306L7.16753 13.4607L6.4941 13.1306ZM11.3905 18.027L11.0604 17.3536L11.3905 18.027ZM8.22703 10.6372C7.93414 10.3443 7.45927 10.3443 7.16637 10.6372C6.87348 10.9301 6.87348 11.405 7.16637 11.6978L8.22703 10.6372ZM12.8232 17.3547C13.1161 17.6476 13.591 17.6476 13.8839 17.3547C14.1768 17.0618 14.1768 16.5869 13.8839 16.294L12.8232 17.3547ZM6.45927 19.1225C6.75216 18.8296 6.75216 18.3547 6.45927 18.0618C6.16637 17.7689 5.6915 17.7689 5.39861 18.0618L6.45927 19.1225ZM2.57018 20.8902C2.27729 21.1831 2.27729 21.658 2.57018 21.9509C2.86307 22.2438 3.33795 22.2438 3.63084 21.9509L2.57018 20.8902ZM4.33795 17.0012C4.63084 16.7083 4.63084 16.2334 4.33795 15.9405C4.04505 15.6476 3.57018 15.6476 3.27729 15.9405L4.33795 17.0012ZM1.86307 17.3547C1.57018 17.6476 1.57018 18.1225 1.86307 18.4154C2.15597 18.7083 2.63084 18.7083 2.92373 18.4154L1.86307 17.3547ZM8.58059 21.2438C8.87348 20.9509 8.87348 20.476 8.58059 20.1831C8.28769 19.8902 7.81282 19.8902 7.51993 20.1831L8.58059 21.2438ZM6.10571 21.5973C5.81282 21.8902 5.81282 22.3651 6.10571 22.658C6.39861 22.9509 6.87348 22.9509 7.16637 22.658L6.10571 21.5973ZM10.5958 21.562L11.3383 21.4559L10.5958 21.562ZM15.7577 18.0972L16.5002 17.9911L15.7577 18.0972ZM2.95907 13.9253L3.06513 13.1828L3.06513 13.1828L2.95907 13.9253ZM6.42389 8.76338L6.31782 9.50584L6.31782 9.50584L6.42389 8.76338ZM9.21965 17.6403L9.74998 17.11L7.41112 14.7711L6.88079 15.3014L6.35046 15.8318L8.68932 18.1706L9.21965 17.6403ZM18.3033 13.2889L17.7534 12.7789C15.8597 14.8206 12.7851 16.508 11.0604 17.3536L11.3905 18.027L11.7206 18.7004C13.4609 17.8473 16.7565 16.0595 18.8532 13.7989L18.3033 13.2889ZM6.4941 13.1306L7.16753 13.4607C8.01306 11.736 9.70048 8.66135 11.7422 6.76771L11.2322 6.21781L10.7222 5.66792C8.46157 7.76457 6.67381 11.0602 5.82067 12.8004L6.4941 13.1306ZM21.6606 4.7523L20.917 4.65504C20.6131 6.97839 19.8058 10.5659 17.7534 12.7789L18.3033 13.2889L18.8532 13.7989C21.2487 11.216 22.0958 7.20857 22.4043 4.84956L21.6606 4.7523ZM11.2322 6.21781L11.7422 6.76771C13.9551 4.7153 17.5427 3.90797 19.866 3.60411L19.7688 2.86044L19.6715 2.11678C17.3125 2.4253 13.305 3.27241 10.7222 5.66792L11.2322 6.21781ZM21.6606 4.7523L22.4043 4.84956C22.6154 3.23569 21.2854 1.9057 19.6715 2.11678L19.7688 2.86044L19.866 3.60411C20.503 3.5208 21.0003 4.01808 20.917 4.65504L21.6606 4.7523ZM6.88079 15.3014L7.41112 14.7711C7.04794 14.4079 6.95921 13.8857 7.16753 13.4607L6.4941 13.1306L5.82067 12.8004C5.31248 13.837 5.56267 15.044 6.35046 15.8318L6.88079 15.3014ZM9.21965 17.6403L8.68932 18.1706C9.47711 18.9584 10.684 19.2086 11.7206 18.7004L11.3905 18.027L11.0604 17.3536C10.6354 17.5619 10.1132 17.4731 9.74998 17.11L9.21965 17.6403ZM7.6967 11.1675L7.16637 11.6978L12.8232 17.3547L13.3536 16.8244L13.8839 16.294L8.22703 10.6372L7.6967 11.1675ZM5.92894 18.5921L5.39861 18.0618L2.57018 20.8902L3.10051 21.4206L3.63084 21.9509L6.45927 19.1225L5.92894 18.5921ZM3.80762 16.4708L3.27729 15.9405L1.86307 17.3547L2.3934 17.885L2.92373 18.4154L4.33795 17.0012L3.80762 16.4708ZM8.05026 20.7135L7.51993 20.1831L6.10571 21.5973L6.63604 22.1277L7.16637 22.658L8.58059 21.2438L8.05026 20.7135ZM13.7071 7.98554L13.1768 7.45521C12.1028 8.52915 12.1028 10.2704 13.1768 11.3443L13.7071 10.814L14.2374 10.2836C13.7493 9.79548 13.7493 9.00403 14.2374 8.51587L13.7071 7.98554ZM13.7071 10.814L13.1768 11.3443C14.2507 12.4182 15.9919 12.4182 17.0659 11.3443L16.5355 10.814L16.0052 10.2836C15.5171 10.7718 14.7256 10.7718 14.2374 10.2836L13.7071 10.814ZM16.5355 10.814L17.0659 11.3443C18.1398 10.2704 18.1398 8.52915 17.0659 7.45521L16.5355 7.98554L16.0052 8.51587C16.4934 9.00403 16.4934 9.79548 16.0052 10.2836L16.5355 10.814ZM16.5355 7.98554L17.0659 7.45521C15.9919 6.38127 14.2507 6.38127 13.1768 7.45521L13.7071 7.98554L14.2374 8.51587C14.7256 8.02771 15.5171 8.02771 16.0052 8.51587L16.5355 7.98554ZM15.4749 18.9457L14.9445 18.4154L11.7626 21.5973L12.2929 22.1277L12.8232 22.658L16.0052 19.476L15.4749 18.9457ZM10.5958 21.562L11.3383 21.4559L10.914 18.4861L10.1716 18.5921L9.42912 18.6982L9.85338 21.6681L10.5958 21.562ZM15.4749 16.1173L14.7324 16.2233L15.0153 18.2032L15.7577 18.0972L16.5002 17.9911L16.2173 16.0112L15.4749 16.1173ZM12.2929 22.1277L11.7626 21.5973C11.6169 21.743 11.3674 21.6599 11.3383 21.4559L10.5958 21.562L9.85338 21.6681C10.0573 23.0956 11.8035 23.6777 12.8232 22.658L12.2929 22.1277ZM15.4749 18.9457L16.0052 19.476C16.3947 19.0865 16.5781 18.5364 16.5002 17.9911L15.7577 18.0972L15.0153 18.2032C15.0264 18.2811 15.0002 18.3597 14.9445 18.4154L15.4749 18.9457ZM5.57536 9.04622L5.04503 8.51589L1.86305 11.6979L2.39338 12.2282L2.92371 12.7585L6.10569 9.57655L5.57536 9.04622ZM2.95907 13.9253L2.853 14.6677L5.82285 15.092L5.92891 14.3495L6.03498 13.6071L3.06513 13.1828L2.95907 13.9253ZM8.40379 9.04622L8.50985 8.30376L6.52996 8.02092L6.42389 8.76338L6.31782 9.50584L8.29772 9.78868L8.40379 9.04622ZM2.39338 12.2282L1.86305 11.6979C0.843346 12.7176 1.42542 14.4638 2.853 14.6677L2.95907 13.9253L3.06513 13.1828C2.86119 13.1537 2.77804 12.9042 2.92371 12.7585L2.39338 12.2282ZM5.57536 9.04622L6.10569 9.57655C6.16133 9.52091 6.23992 9.49471 6.31782 9.50584L6.42389 8.76338L6.52996 8.02092C5.98467 7.94302 5.43452 8.1264 5.04503 8.51589L5.57536 9.04622Z" fill="#A4ADB2"/>
</svg>
