<svg width="25" height="25" viewBox="0 0 25 25" fill="none" xmlns="http://www.w3.org/2000/svg">
<path d="M17.4805 1.72974C18.0286 1.72979 18.5584 1.80811 19.0605 1.95142C18.3951 2.58855 17.9805 3.48574 17.9805 4.47974C17.9807 6.41255 19.5476 7.97974 21.4805 7.97974C22.1183 7.97972 22.7155 7.80716 23.2305 7.50903V17.4797C23.2304 20.6551 20.6558 23.2294 17.4805 23.2297H7.48047C4.30488 23.2297 1.73054 20.6553 1.73047 17.4797V7.47974C1.73047 4.3041 4.30483 1.72974 7.48047 1.72974H17.4805ZM17.9746 9.16528C17.6629 8.89258 17.1888 8.92406 16.916 9.2356L13.8984 12.6848L11.4609 10.6536C11.1482 10.393 10.6842 10.4294 10.416 10.7356L6.91602 14.7356C6.64329 15.0473 6.67473 15.5214 6.98633 15.7942C7.29801 16.0667 7.77221 16.0354 8.04492 15.7239L11.0635 12.2756L13.5 14.3059C13.7737 14.5338 14.163 14.5341 14.4355 14.3254L14.5449 14.2239L18.0449 10.2239C18.3175 9.91228 18.286 9.43808 17.9746 9.16528ZM20.6309 2.67017C21.7411 3.39899 22.5834 4.50138 22.9795 5.79907C22.613 6.21504 22.0784 6.47971 21.4805 6.47974C20.376 6.47974 19.4807 5.58412 19.4805 4.47974C19.4805 3.67921 19.9515 2.98974 20.6309 2.67017Z" fill="#FF2233"/>
<circle cx="2" cy="2" r="2" transform="matrix(-1 0 0 1 23.4805 2.47925)" fill="#FF2233"/>
</svg>
