<svg width="25" height="25" viewBox="0 0 25 25" fill="none" xmlns="http://www.w3.org/2000/svg">
<path d="M9.33384 19.6989L9.8175 19.0854L9.33384 19.6989ZM12.4987 5.72992L11.9358 6.27169C11.9393 6.27531 11.9428 6.27889 11.9464 6.28244L12.4987 5.72992ZM15.6636 19.6989L16.1472 20.3125L15.6636 19.6989ZM14.0297 8.36502C14.3349 8.67007 14.8295 8.66998 15.1346 8.36482C15.4396 8.05967 15.4395 7.56501 15.1344 7.25997L14.582 7.8125L14.0297 8.36502ZM9.33384 19.6989L9.8175 19.0854C8.23869 17.8408 6.51231 16.6254 5.14275 15.0832C3.79997 13.5712 2.86328 11.8069 2.86328 9.5179H2.08203H1.30078C1.30078 12.2945 2.45755 14.4126 3.97445 16.1207C5.46456 17.7986 7.36408 19.1409 8.85018 20.3125L9.33384 19.6989ZM2.08203 9.5179H2.86328C2.86328 7.27742 4.12929 5.39855 5.8574 4.60863C7.53627 3.84121 9.7921 4.04444 11.9358 6.27169L12.4987 5.72992L13.0616 5.18815C10.518 2.54543 7.56546 2.10987 5.20783 3.18755C2.89944 4.24272 1.30078 6.69283 1.30078 9.5179H2.08203ZM9.33384 19.6989L8.85018 20.3125C9.38376 20.7331 9.95656 21.1816 10.5371 21.5208C11.1173 21.8599 11.7795 22.1355 12.4987 22.1355V21.3543V20.573C12.1762 20.573 11.7968 20.4472 11.3254 20.1718C10.8542 19.8965 10.3654 19.5173 9.8175 19.0854L9.33384 19.6989ZM15.6636 19.6989L16.1472 20.3125C17.6333 19.1409 19.5328 17.7986 21.023 16.1207C22.5398 14.4126 23.6966 12.2945 23.6966 9.5179H22.9154H22.1341C22.1341 11.8069 21.1974 13.5712 19.8547 15.0832C18.4851 16.6254 16.7587 17.8408 15.1799 19.0854L15.6636 19.6989ZM22.9154 9.5179H23.6966C23.6966 6.69283 22.098 4.24272 19.7896 3.18755C17.4319 2.10987 14.4794 2.54543 11.9358 5.18815L12.4987 5.72992L13.0616 6.27169C15.2053 4.04444 17.4611 3.84121 19.14 4.60863C20.8681 5.39855 22.1341 7.27742 22.1341 9.5179H22.9154ZM15.6636 19.6989L15.1799 19.0854C14.632 19.5173 14.1432 19.8965 13.672 20.1718C13.2006 20.4472 12.8212 20.573 12.4987 20.573V21.3543V22.1355C13.2179 22.1355 13.8801 21.8599 14.4603 21.5208C15.0408 21.1816 15.6136 20.7331 16.1472 20.3125L15.6636 19.6989ZM12.4987 5.72992L11.9464 6.28244L14.0297 8.36502L14.582 7.8125L15.1344 7.25997L13.051 5.17739L12.4987 5.72992Z" fill="#464A4D"/>
</svg>
