<svg width="22" height="22" viewBox="0 0 22 22" fill="none" xmlns="http://www.w3.org/2000/svg">
<path d="M5.76663 3.29781C6.23809 2.98278 6.73609 2.71482 7.25343 2.49609C8.50885 1.96531 9.13656 1.69992 9.93742 2.23081C10.7383 2.76171 10.7383 3.63086 10.7383 5.36916V7.1589C10.7383 8.84629 10.7383 9.68998 11.2625 10.2142C11.7867 10.7384 12.6304 10.7384 14.3178 10.7384H16.1075C17.8458 10.7384 18.715 10.7384 19.2458 11.5392C19.7767 12.3401 19.5114 12.9678 18.9806 14.2232C18.7618 14.7406 18.4939 15.2386 18.1789 15.71C17.1956 17.1816 15.798 18.3286 14.1628 19.0059C12.5276 19.6832 10.7283 19.8604 8.99246 19.5152C7.25658 19.1699 5.66207 18.3176 4.41057 17.0661C3.15907 15.8146 2.30679 14.2201 1.9615 12.4842C1.61621 10.7483 1.79343 8.94903 2.47074 7.31386C3.14804 5.6787 4.29502 4.2811 5.76663 3.29781Z" fill="#FF2233"/>
<path fill-rule="evenodd" clip-rule="evenodd" d="M12.3255 1.90246C12.4179 1.54349 12.7838 1.32739 13.1428 1.41978C16.5242 2.2901 19.1848 4.95067 20.0551 8.33208C20.1475 8.69105 19.9314 9.05695 19.5724 9.14934C19.2135 9.24173 18.8476 9.02563 18.7552 8.66666C18.0067 5.75887 15.716 3.46814 12.8082 2.71972C12.4493 2.62733 12.2332 2.26143 12.3255 1.90246Z" fill="#FF2233"/>
</svg>
