<svg width="22" height="22" viewBox="0 0 22 22" fill="none" xmlns="http://www.w3.org/2000/svg">
<path fill-rule="evenodd" clip-rule="evenodd" d="M10.3085 1.67062C9.76809 1.31237 9.24075 1.20876 8.65995 1.30183C8.16451 1.38122 7.62816 1.60813 7.05261 1.85163L6.99233 1.87712C6.43618 2.11226 5.90083 2.40032 5.39401 2.73897C3.81203 3.79601 2.57903 5.29843 1.85093 7.05623C1.12282 8.81403 0.932315 10.7483 1.3035 12.6143C1.67468 14.4804 2.59089 16.1945 3.93625 17.5399C5.28161 18.8852 6.99571 19.8014 8.86178 20.1726C10.7279 20.5438 12.6621 20.3533 14.4199 19.6252C16.1777 18.8971 17.6801 17.6641 18.7372 16.0821C19.0758 15.5753 19.3639 15.0399 19.599 14.4838L19.6245 14.4235C19.868 13.848 20.0949 13.3116 20.1743 12.8162C20.2674 12.2354 20.1638 11.708 19.8055 11.1676C19.4208 10.5873 18.8971 10.3066 18.2612 10.1796C17.6944 10.0663 16.9859 10.0664 16.1714 10.0664L14.318 10.0664C13.4553 10.0664 12.8759 10.065 12.4436 10.0069C12.0307 9.95138 11.8539 9.85543 11.7373 9.73881C11.6207 9.6222 11.5247 9.44546 11.4692 9.03252C11.4111 8.60026 11.4097 8.02078 11.4097 7.15811L11.4097 5.30475C11.4098 4.49021 11.4098 3.78168 11.2966 3.21489C11.1695 2.57901 10.8889 2.05534 10.3085 1.67062ZM7.51505 3.11347C8.17204 2.8357 8.55711 2.67774 8.87234 2.62723C9.11946 2.58763 9.3064 2.61678 9.56684 2.78942C9.78734 2.9356 9.90714 3.11195 9.98028 3.47794C10.0643 3.89832 10.0674 4.47137 10.0674 5.36837L10.0674 7.20464C10.0673 8.00865 10.0673 8.67913 10.1389 9.21137C10.2144 9.77317 10.3806 10.2804 10.7882 10.688C11.1957 11.0956 11.703 11.2617 12.2647 11.3372C12.797 11.4088 13.4674 11.4088 14.2715 11.4088L16.1078 11.4087C17.0048 11.4087 17.5778 11.4118 17.9982 11.4958C18.3642 11.569 18.5405 11.6888 18.6867 11.9093C18.8593 12.1697 18.8885 12.3567 18.8489 12.6038C18.7984 12.919 18.6404 13.3041 18.3627 13.9611C18.1603 14.4396 17.9125 14.9003 17.6211 15.3364C16.7115 16.6976 15.4187 17.7586 13.9062 18.3851C12.3937 19.0116 10.7293 19.1755 9.12365 18.8561C7.51796 18.5367 6.04304 17.7484 4.88541 16.5907C3.72777 15.4331 2.93941 13.9582 2.62002 12.3525C2.30062 10.7468 2.46455 9.08244 3.09106 7.56991C3.71757 6.05738 4.77852 4.76461 6.13976 3.85506C6.57587 3.56366 7.03651 3.31579 7.51505 3.11347Z" fill="#8C9499"/>
<path d="M13.143 1.42063C12.784 1.32824 12.4181 1.54435 12.3257 1.90331C12.2333 2.26228 12.4494 2.62818 12.8084 2.72058C15.7162 3.46899 18.0069 5.75972 18.7553 8.66751C18.8477 9.02648 19.2136 9.24258 19.5726 9.15019C19.9316 9.0578 20.1477 8.6919 20.0553 8.33293C19.185 4.95152 16.5244 2.29095 13.143 1.42063Z" fill="#8C9499"/>
</svg>
