<svg width="24" height="24" viewBox="0 0 24 24" fill="none" xmlns="http://www.w3.org/2000/svg">
<path d="M13.5215 3C14.7216 3 15.8066 3.71531 16.2793 4.81836L16.5889 5.54102C16.8383 6.12283 17.4109 6.5 18.0439 6.5C20.2287 6.50021 21.9998 8.27128 22 10.4561V15.5C22 18.2614 19.7614 20.5 17 20.5H7C4.23858 20.5 2 18.2614 2 15.5V10.4561C2.00021 8.27128 3.77128 6.50021 5.95605 6.5C6.58908 6.5 7.16172 6.12283 7.41113 5.54102L7.7207 4.81836C8.19344 3.71531 9.27843 3 10.4785 3H13.5215ZM12 8.75C9.92893 8.75 8.25 10.4289 8.25 12.5C8.25 14.5711 9.92893 16.25 12 16.25C14.0711 16.25 15.75 14.5711 15.75 12.5C15.75 10.4289 14.0711 8.75 12 8.75ZM12 10.25C13.2426 10.25 14.25 11.2574 14.25 12.5C14.25 13.7426 13.2426 14.75 12 14.75C10.7574 14.75 9.75 13.7426 9.75 12.5C9.75 11.2574 10.7574 10.25 12 10.25Z" fill="#464A4D"/>
</svg>
