<svg width="27" height="28" viewBox="0 0 27 28" fill="none" xmlns="http://www.w3.org/2000/svg">
<rect x="0.166016" y="0.874268" width="26.3314" height="26.3314" rx="13.1657" fill="#01E17B" fill-opacity="0.1"/>
<path d="M13.3315 6.01709C11.7447 6.01709 10.1935 6.48762 8.87419 7.36919C7.55484 8.25075 6.52653 9.50375 5.9193 10.9697C5.31207 12.4357 5.15319 14.0488 5.46275 15.6051C5.77232 17.1614 6.53642 18.5909 7.65844 19.713C8.78045 20.835 10.21 21.5991 11.7663 21.9086C13.3226 22.2182 14.9357 22.0593 16.4017 21.4521C17.8677 20.8449 19.1207 19.8166 20.0022 18.4972C20.8838 17.1779 21.3543 15.6267 21.3543 14.0399C21.3521 11.9128 20.5061 9.8735 19.002 8.36941C17.4979 6.86532 15.4586 6.01934 13.3315 6.01709ZM16.8538 12.6251L12.5338 16.9451C12.4765 17.0025 12.4084 17.048 12.3335 17.0791C12.2586 17.1102 12.1783 17.1261 12.0972 17.1261C12.0161 17.1261 11.9358 17.1102 11.8608 17.0791C11.7859 17.048 11.7179 17.0025 11.6605 16.9451L9.80911 15.0937C9.69331 14.9779 9.62825 14.8209 9.62825 14.6571C9.62825 14.4933 9.69331 14.3363 9.80911 14.2205C9.92491 14.1047 10.082 14.0396 10.2457 14.0396C10.4095 14.0396 10.5666 14.1047 10.6824 14.2205L12.0972 15.636L15.9805 11.7519C16.0379 11.6946 16.106 11.6491 16.1809 11.618C16.2558 11.587 16.3361 11.571 16.4172 11.571C16.4983 11.571 16.5786 11.587 16.6535 11.618C16.7284 11.6491 16.7965 11.6946 16.8538 11.7519C16.9111 11.8092 16.9566 11.8773 16.9877 11.9522C17.0187 12.0271 17.0347 12.1074 17.0347 12.1885C17.0347 12.2696 17.0187 12.3499 16.9877 12.4248C16.9566 12.4997 16.9111 12.5678 16.8538 12.6251Z" fill="#01E17B"/>
</svg>
