<svg width="25" height="25" viewBox="0 0 25 25" fill="none" xmlns="http://www.w3.org/2000/svg">
<path d="M12.5 14.4998V11.4998M12.5 11.4998V8.49976M12.5 11.4998H9.5M12.5 11.4998H15.5M7.62357 19.201L6.09961 20.4201C5.26744 21.0859 4.85115 21.4189 4.50098 21.4193C4.19644 21.4196 3.90845 21.2811 3.71846 21.0431C3.5 20.7694 3.5 20.2367 3.5 19.171V7.69996C3.5 6.57985 3.5 6.01938 3.71799 5.59156C3.90973 5.21523 4.21547 4.90949 4.5918 4.71775C5.01962 4.49976 5.58009 4.49976 6.7002 4.49976H18.3002C19.4203 4.49976 19.9801 4.49976 20.4079 4.71775C20.7842 4.90949 21.0905 5.21523 21.2822 5.59156C21.5 6.01896 21.5 6.57875 21.5 7.69667V15.3034C21.5 16.4213 21.5 16.9803 21.2822 17.4077C21.0905 17.784 20.7843 18.0903 20.408 18.282C19.9806 18.4998 19.4215 18.4998 18.3036 18.4998H9.62256C9.20652 18.4998 8.99829 18.4998 8.79932 18.5406C8.62279 18.5769 8.45216 18.6366 8.29168 18.7186C8.11149 18.8106 7.94964 18.9401 7.62722 19.198L7.62357 19.201Z" stroke="currentColor" stroke-width="2" stroke-linecap="round" stroke-linejoin="round"/>
</svg>
