<svg width="20" height="22" viewBox="0 0 20 22" fill="none" xmlns="http://www.w3.org/2000/svg">
<path d="M15.7378 7.74902C15.7377 4.27049 13.0274 1.49817 9.74266 1.49805C6.45778 1.49805 3.74767 4.27042 3.74754 7.74902V8.45312C3.74754 9.43996 3.46607 10.4071 2.93602 11.2324L1.82958 12.9561C1.07646 14.1287 1.67297 15.6865 2.92137 16.04C7.3871 17.3041 12.0972 17.3041 16.563 16.04C17.8115 15.6866 18.4087 14.1288 17.6557 12.9561L16.5493 11.2324C16.0192 10.4071 15.7378 9.44004 15.7378 8.45312V7.74902ZM17.2368 8.45312C17.2368 9.15623 17.437 9.84202 17.81 10.4229L18.9165 12.1455C20.1849 14.1202 19.2388 16.8405 16.9712 17.4824C12.2385 18.822 7.24581 18.8221 2.51317 17.4824C0.245701 16.8404 -0.700484 14.1202 0.567857 12.1455L1.6743 10.4229C2.04738 9.84202 2.24852 9.15623 2.24852 8.45312V7.74902C2.24864 3.4956 5.57784 0 9.74266 0C13.9074 0.000121177 17.2367 3.49567 17.2368 7.74902V8.45312Z" fill="#464A4D"/>
<path d="M9.74255 21.4845C12.1189 21.4845 14.1723 20.0506 14.9408 18.0002C15.0859 17.6126 14.8899 17.1806 14.5023 17.0353C14.1148 16.8902 13.6827 17.0872 13.5375 17.4748C12.9967 18.9173 11.5183 19.9864 9.74255 19.9865C7.96679 19.9865 6.48843 18.9173 5.94763 17.4748C5.80242 17.0873 5.37029 16.8904 4.98279 17.0353C4.59533 17.1805 4.3984 17.6127 4.54333 18.0002C5.31181 20.0507 7.36617 21.4845 9.74255 21.4845Z" fill="#464A4D"/>
</svg>
