<svg width="24" height="24" viewBox="0 0 24 24" fill="none" xmlns="http://www.w3.org/2000/svg">
<path d="M5.0724 8C5.81009 6.72229 6.88674 5.67345 8.18333 4.96946C9.47992 4.26547 10.9459 3.93375 12.4193 4.01097C13.8926 4.08818 15.316 4.57133 16.5319 5.40699C17.7477 6.24266 18.7089 7.39828 19.309 8.74611M3.23242 5.51537L3.96183 8.6749C4.08607 9.21303 4.62302 9.54856 5.16115 9.42433L8.32069 8.69492M18.9288 15.9999C18.1912 17.2776 17.1145 18.3264 15.8179 19.0304C14.5213 19.7344 13.0553 20.0661 11.582 19.9889C10.1086 19.9117 8.68529 19.4286 7.46939 18.5929C6.25349 17.7572 5.29237 16.6016 4.69228 15.2538M20.7688 18.4845L20.0394 15.325C19.9152 14.7869 19.3782 14.4513 18.8401 14.5756L15.6806 15.305" stroke="#A4ADB2" stroke-width="1.5" stroke-linecap="round"/>
</svg>
