<svg width="25" height="25" viewBox="0 0 25 25" fill="none" xmlns="http://www.w3.org/2000/svg">
<path fill-rule="evenodd" clip-rule="evenodd" d="M3 11.6228C3 6.87857 6.87857 3 11.6228 3C16.367 3 20.2456 6.87857 20.2456 11.6228C20.2456 16.367 16.367 20.2456 11.6228 20.2456C6.87857 20.2456 3 16.367 3 11.6228ZM11.6228 4.47819C7.69495 4.47819 4.47819 7.69495 4.47819 11.6228C4.47819 15.5506 7.69495 18.7674 11.6228 18.7674C15.5506 18.7674 18.7674 15.5506 18.7674 11.6228C18.7674 7.69495 15.5506 4.47819 11.6228 4.47819Z" fill="currentColor" shape-rendering="geometricPrecision"/>
<path fill-rule="evenodd" clip-rule="evenodd" d="M17.664 16.6187L22.0001 20.9548L20.9548 22L16.6188 17.664L17.664 16.6187Z" fill="currentColor"/>
</svg>
