<svg width="22" height="22" viewBox="0 0 22 22" fill="none" xmlns="http://www.w3.org/2000/svg">
<path fill-rule="evenodd" clip-rule="evenodd" d="M1.92383 11.0589C1.92383 11.4037 2.20339 11.6833 2.54825 11.6833H4.24225C4.53792 14.8634 7.0693 17.3948 10.2494 17.6905V19.3845C10.2494 19.7293 10.529 20.0089 10.8738 20.0089C11.2187 20.0089 11.4982 19.7293 11.4982 19.3845V17.6905C14.6784 17.3948 17.2097 14.8634 17.5054 11.6833H19.1994C19.5443 11.6833 19.8238 11.4037 19.8238 11.0589C19.8238 10.714 19.5443 10.4345 19.1994 10.4345H17.5054C17.2097 7.25436 14.6784 4.72298 11.4982 4.42731V2.73331C11.4982 2.38845 11.2187 2.10889 10.8738 2.10889C10.529 2.10889 10.2494 2.38845 10.2494 2.73331V4.42731C7.0693 4.72298 4.53792 7.25436 4.24225 10.4345H2.54825C2.20339 10.4345 1.92383 10.714 1.92383 11.0589ZM7.75173 11.0589C7.75173 9.3346 9.14954 7.93679 10.8738 7.93679C12.5981 7.93679 13.9959 9.3346 13.9959 11.0589C13.9959 12.7832 12.5981 14.181 10.8738 14.181C9.14954 14.181 7.75173 12.7832 7.75173 11.0589Z" fill="#FF2233"/>
<path d="M9.00057 11.0589C9.00057 10.0243 9.83926 9.18563 10.8738 9.18563C11.9084 9.18563 12.7471 10.0243 12.7471 11.0589C12.7471 12.0935 11.9084 12.9321 10.8738 12.9321C9.83926 12.9321 9.00057 12.0935 9.00057 11.0589Z" fill="#FF2233"/>
</svg>
