<svg width="22" height="22" viewBox="0 0 22 22" fill="none" xmlns="http://www.w3.org/2000/svg">
<path fill-rule="evenodd" clip-rule="evenodd" d="M10.8732 1.52969C11.2439 1.52969 11.5445 1.83022 11.5445 2.20094V3.34806C15.3341 3.66976 18.3544 6.6901 18.6761 10.4797H19.8232C20.1939 10.4797 20.4945 10.7802 20.4945 11.1509C20.4945 11.5217 20.1939 11.8222 19.8232 11.8222H18.6761C18.3544 15.6118 15.3341 18.6321 11.5445 18.9538V20.1009C11.5445 20.4717 11.2439 20.7722 10.8732 20.7722C10.5025 20.7722 10.202 20.4717 10.202 20.1009V18.9538C6.41235 18.6321 3.39202 15.6118 3.07032 11.8222H1.9232C1.55248 11.8222 1.25195 11.5217 1.25195 11.1509C1.25195 10.7802 1.55248 10.4797 1.9232 10.4797H3.07032C3.39202 6.6901 6.41235 3.66976 10.202 3.34806V2.20094C10.202 1.83022 10.5025 1.52969 10.8732 1.52969ZM10.8732 4.66219C7.28957 4.66219 4.38445 7.56731 4.38445 11.1509C4.38445 14.7346 7.28957 17.6397 10.8732 17.6397C14.4568 17.6397 17.362 14.7346 17.362 11.1509C17.362 7.56731 14.4568 4.66219 10.8732 4.66219ZM10.8732 9.13719C9.76104 9.13719 8.85945 10.0388 8.85945 11.1509C8.85945 12.2631 9.76104 13.1647 10.8732 13.1647C11.9854 13.1647 12.887 12.2631 12.887 11.1509C12.887 10.0388 11.9854 9.13719 10.8732 9.13719ZM7.51695 11.1509C7.51695 9.29734 9.0196 7.79469 10.8732 7.79469C12.7268 7.79469 14.2295 9.29734 14.2295 11.1509C14.2295 13.0045 12.7268 14.5072 10.8732 14.5072C9.0196 14.5072 7.51695 13.0045 7.51695 11.1509Z" fill="currentColor"/>
</svg>
